<?xml version="1.0" encoding="utf-8"?>
<!-- Generator: Adobe Illustrator 19.0.0, SVG Export Plug-In . SVG Version: 6.00 Build 0)  -->
<svg version="1.1" id="layer" xmlns="http://www.w3.org/2000/svg" xmlns:xlink="http://www.w3.org/1999/xlink" x="0px" y="0px"
	 viewBox="-153 -46 652 652" style="enable-background:new -153 -46 652 652;" xml:space="preserve">
<path d="M26.7,289.3v-10.2l37.9-35.7H38v7H27.3v-16.8h51.6v10.2l-37.6,35.5h27.5v-7.2h10.7v17.1H26.7z M112.7,290.4
	c-3.9,0-7.7-0.7-11.3-2.3c-7-2.9-12.5-8.5-15.4-15.4c-3-7.2-3-15.4,0-22.6c2.9-7,8.4-12.5,15.4-15.4c7.2-3,15.3-3,22.6,0
	c7,2.9,12.5,8.5,15.4,15.4c3,7.2,3,15.4,0,22.6c-2.9,7-8.4,12.5-15.4,15.4C120.4,289.7,116.6,290.5,112.7,290.4L112.7,290.4z
	 M112.7,279.7c4.7,0,9.3-1.9,12.5-5.4c1.6-1.7,2.8-3.6,3.7-5.8c1.8-4.6,1.8-9.7,0-14.2c-0.9-2.1-2.2-4.1-3.8-5.8
	c-1.6-1.7-3.5-3-5.6-3.9c-4.4-1.9-9.4-1.9-13.7,0c-4.2,1.9-7.6,5.4-9.3,9.7c-1.8,4.6-1.8,9.7,0,14.2c1.7,4.3,5,7.8,9.3,9.7
	C108,279.2,110.3,279.7,112.7,279.7L112.7,279.7z M175.1,290.4c-3.9,0-7.7-0.8-11.3-2.3c-7-2.9-12.5-8.5-15.4-15.4
	c-3-7.2-3-15.4,0-22.6c2.9-7,8.4-12.5,15.4-15.4c7.2-3,15.3-3,22.5,0c7,2.9,12.5,8.5,15.4,15.4c3,7.2,3,15.4,0,22.6
	c-2.9,7-8.4,12.5-15.4,15.4C182.8,289.7,179,290.5,175.1,290.4L175.1,290.4z M175.1,279.7c4.7,0,9.3-1.9,12.5-5.4
	c1.6-1.7,2.8-3.6,3.7-5.8c1.8-4.6,1.8-9.7,0-14.2c-0.9-2.1-2.2-4.1-3.8-5.8c-1.6-1.7-3.5-3-5.6-3.9c-4.4-1.9-9.4-1.9-13.7,0
	c-4.2,1.9-7.6,5.4-9.3,9.7c-1.8,4.6-1.8,9.7,0,14.2c0.9,2.2,2.1,4.1,3.7,5.8c1.6,1.7,3.5,3,5.5,3.9
	C170.4,279.2,172.7,279.7,175.1,279.7L175.1,279.7z M210.6,233.6h11v6.4c1.7-2.3,3.9-4.2,6.5-5.5c2.9-1.4,6.1-2.1,9.3-2
	c4.5,0,8.2,0.8,11.1,2.6c2.9,1.7,5.2,4.2,6.6,7.2c1.8-3,4.3-5.4,7.3-7.1c3.3-1.8,7-2.8,10.8-2.7c3.4-0.1,6.7,0.5,9.9,1.6
	c2.7,1,5.1,2.6,7,4.7c1.9,2.2,3.3,4.7,4.1,7.4c0.9,3.2,1.4,6.4,1.3,9.7v33.3h-11.5v-32.7c0-4.3-1-7.8-3-10.4c-2-2.6-5.2-3.9-9.6-3.9
	c-4,0-7.2,1.3-9.5,3.8c-2.4,2.6-3.6,6.4-3.6,11.5v31.7h-11.2v-33.5c0-4.3-1-7.6-2.9-10c-2-2.4-5.1-3.6-9.3-3.6c-4.1,0-7.4,1.3-9.7,4
	c-2.4,2.6-3.6,6.6-3.5,11.9v31.2h-11.1V233.6z M304.6,211.2c1.5-1.5,3.5-2.3,5.6-2.3c2.2-0.1,4.2,0.7,5.7,2.3
	c1.5,1.5,2.3,3.6,2.2,5.7c0.1,2.1-0.7,4.2-2.2,5.7c-1.5,1.5-3.6,2.4-5.7,2.3c-2.1,0.1-4.2-0.7-5.6-2.3c-1.4-1.5-2.2-3.6-2.2-5.7
	C302.4,214.7,303.2,212.7,304.6,211.2L304.6,211.2z M304.7,233.6h11.2v55.7h-11.2V233.6z M325.6,233.6h10.9v7.7
	c4.1-5.7,10.7-9.1,17.7-8.9c3.3,0,6.5,0.5,9.5,1.7c2.7,1.1,5.2,2.7,7.2,4.9c2,2.2,3.6,4.9,4.5,7.7c1.1,3.3,1.6,6.8,1.6,10.2v32.4
	h-11.3v-31.5c0-4.8-1.2-8.5-3.6-11.4c-2.4-2.8-5.9-4.2-10.6-4.2c-2,0-4,0.4-5.9,1.1c-1.8,0.7-3.4,1.8-4.7,3.2
	c-1.4,1.5-2.5,3.3-3.1,5.2c-0.8,2.2-1.2,4.5-1.1,6.8v30.7h-11.1V233.6z M378.5,233.6h9.7v-3.2c-0.1-3.6,0.3-7.2,1.1-10.8
	c0.6-2.6,1.8-4.9,3.6-6.9c1.9-1.8,4.2-3.1,6.8-3.7c3.5-0.8,7.2-1.2,10.8-1.1h2.7v10.3h-1.9c-2.2,0-4.3,0.1-6.4,0.4
	c-1.4,0.2-2.7,0.8-3.7,1.8c-0.9,1-1.5,2.3-1.6,3.7c-0.3,2.1-0.4,4.2-0.4,6.3v3.1h13.1v10h-13.1v45.7h-10.9v-45.7h-9.7V233.6z
	 M439.8,290.5c-3.9,0-7.8-0.7-11.3-2.3c-6.9-2.9-12.4-8.4-15.3-15.4c-3-7.3-3-15.4,0-22.7c2.9-7,8.4-12.5,15.3-15.4
	c7.2-3,15.4-3,22.6,0c7,2.9,12.5,8.5,15.4,15.4c3,7.3,3,15.4,0,22.7c-2.9,6.9-8.4,12.5-15.4,15.4
	C447.5,289.7,443.7,290.5,439.8,290.5L439.8,290.5z M439.8,280c2.4,0,4.8-0.5,7-1.4c2.1-0.9,4.1-2.3,5.7-4c1.6-1.7,2.9-3.7,3.8-5.9
	c2.8-7,1.3-15-3.8-20.4c-1.6-1.7-3.6-3-5.7-4c-4.5-1.9-9.6-1.9-14,0c-2.1,0.9-4.1,2.3-5.7,4c-1.6,1.7-2.9,3.7-3.8,5.9
	c-1.8,4.7-1.8,9.8,0,14.5c0.9,2.2,2.1,4.2,3.8,5.9c1.6,1.7,3.5,3,5.7,4C435,279.6,437.4,280,439.8,280L439.8,280z M26.6,312.4h9.1
	c1.2,0,2.4,0.2,3.5,0.6c1,0.4,1.9,1,2.7,1.8c0.7,0.8,1.3,1.7,1.7,2.7c0.4,1,0.7,2.2,0.6,3.3c0,2.2-0.8,4.3-2.4,5.9
	c-0.8,0.8-1.7,1.4-2.7,1.8c-1.1,0.4-2.3,0.7-3.6,0.6h-4.6v6.3h-4.5L26.6,312.4z M31.1,316.5v8.6h4.3c0.6,0,1.2-0.1,1.8-0.3
	c0.5-0.2,1-0.5,1.4-0.9c0.4-0.4,0.7-0.8,0.9-1.4c0.2-0.5,0.3-1.1,0.3-1.7c0-0.6-0.1-1.2-0.3-1.8c-0.2-0.5-0.5-1-0.9-1.3
	c-0.4-0.4-0.9-0.7-1.4-0.9c-0.6-0.2-1.2-0.3-1.8-0.3H31.1z M51,335.2c-3.3-1.4-5.4-4.6-5.4-8.2c0-1.2,0.2-2.4,0.7-3.5
	c0.4-1.1,1.1-2,1.9-2.8c0.8-0.8,1.8-1.5,2.8-1.9c2.3-0.9,4.8-0.9,7.1,0c1.1,0.4,2,1.1,2.9,1.9c1.7,1.7,2.6,3.9,2.6,6.3
	c0,1.2-0.2,2.3-0.7,3.4c-0.5,1-1.1,2-1.9,2.8c-0.8,0.8-1.8,1.5-2.9,1.9c-1.1,0.5-2.3,0.7-3.6,0.7C53.4,335.9,52.2,335.6,51,335.2
	L51,335.2z M56.4,331.3c1.1-0.5,2-1.4,2.5-2.5c0.3-0.6,0.4-1.2,0.4-1.9c0-0.6-0.1-1.3-0.4-1.8c-0.2-0.6-0.6-1.1-1-1.5
	c-1.8-1.8-4.8-1.8-6.6,0c-0.4,0.4-0.8,0.9-1,1.5c-0.2,0.6-0.4,1.2-0.4,1.8c0,1.3,0.5,2.5,1.4,3.4c0.4,0.4,0.9,0.8,1.5,1
	c0.6,0.2,1.2,0.4,1.8,0.4C55.3,331.7,55.9,331.5,56.4,331.3L56.4,331.3z M64,318.4h4.4l3.4,11.1l4-11.1h3.9l4,11.2l3.6-11.2h4.4
	l-5.7,17.1h-4.1l-4.1-11.1l-4.1,11.1h-4.2L64,318.4z M97.3,335.2c-2.2-0.8-3.8-2.5-4.7-4.7c-0.4-1.1-0.6-2.3-0.6-3.5
	c0-1.2,0.2-2.4,0.7-3.5c0.9-2.1,2.6-3.8,4.7-4.7c1.1-0.5,2.3-0.7,3.5-0.7c1.2,0,2.4,0.2,3.5,0.6c1,0.4,2,1,2.8,1.8
	c0.8,0.8,1.4,1.7,1.8,2.8c0.4,1.1,0.7,2.3,0.6,3.5v1.6H96.2c0.3,1,0.9,2,1.7,2.6c0.9,0.7,2,1,3.2,1c0.9,0,1.8-0.2,2.6-0.6
	c0.7-0.4,1.3-1,1.7-1.7l3.6,2.1c-0.8,1.2-1.9,2.2-3.2,2.9c-1.4,0.8-3.1,1.2-4.7,1.1C99.7,335.9,98.5,335.6,97.3,335.2L97.3,335.2z
	 M98,322.7c-0.8,0.6-1.4,1.4-1.7,2.4h9c-0.2-1-0.8-1.8-1.6-2.5c-0.8-0.6-1.8-0.9-2.9-0.8C99.9,321.8,98.9,322.1,98,322.7L98,322.7z
	 M112.7,318.4h4.3v2.6c0.3-0.9,1-1.7,1.8-2.2c0.9-0.5,1.9-0.7,2.9-0.7c1,0,2,0.2,2.9,0.7l-1.6,4.3c-0.3-0.2-0.6-0.3-0.9-0.4
	c-0.4-0.1-0.9-0.2-1.3-0.2c-1-0.1-1.9,0.3-2.7,0.9c-0.7,0.6-1,1.7-1,3.1v9h-4.3V318.4z M130.3,335.2c-2.1-0.8-3.8-2.5-4.7-4.7
	c-0.4-1.1-0.6-2.3-0.6-3.5c0-1.2,0.2-2.4,0.7-3.5c0.9-2.1,2.6-3.8,4.7-4.7c1.1-0.5,2.3-0.7,3.5-0.7c1.2,0,2.4,0.2,3.5,0.6
	c1,0.4,2,1,2.8,1.8c0.8,0.8,1.4,1.7,1.8,2.8c0.4,1.1,0.7,2.3,0.6,3.5v1.6h-13.5c0.2,1,0.8,2,1.7,2.6c0.9,0.7,2.1,1,3.2,1
	c0.9,0,1.8-0.2,2.6-0.6c0.7-0.4,1.3-1,1.7-1.7l3.6,2.1c-0.8,1.2-1.9,2.2-3.1,2.9c-1.4,0.8-3.1,1.2-4.7,1.1
	C132.7,335.9,131.5,335.6,130.3,335.2L130.3,335.2z M131,322.7c-0.8,0.6-1.4,1.4-1.7,2.4h9.1c-0.2-1-0.8-1.8-1.6-2.5
	c-0.8-0.6-1.9-0.9-2.9-0.8C132.9,321.8,131.9,322.1,131,322.7L131,322.7z M152.8,335.8c-1,0-2.1-0.2-3.1-0.6c-1-0.4-1.9-1-2.6-1.8
	c-0.8-0.8-1.4-1.8-1.8-2.8c-0.5-1.2-0.7-2.4-0.7-3.7c0-1.3,0.2-2.5,0.7-3.7c0.4-1,1-2,1.8-2.8c0.7-0.8,1.6-1.4,2.6-1.8
	c1-0.4,2.1-0.6,3.1-0.6c1,0,2.1,0.2,3,0.6c0.9,0.4,1.6,1.1,2.2,1.9v-10h4.3v24.9h-4.3v-2.3c-0.6,0.8-1.4,1.5-2.3,2
	C154.8,335.6,153.8,335.9,152.8,335.8L152.8,335.8z M153.6,331.7c1.9,0,3.6-1.1,4.4-2.9c0.2-0.6,0.4-1.2,0.4-1.9
	c0-1.3-0.5-2.5-1.3-3.4c-0.9-0.9-2.1-1.4-3.4-1.4c-1.3,0-2.5,0.5-3.3,1.4c-1.8,1.9-1.8,4.9,0,6.8c0.4,0.4,0.9,0.8,1.5,1
	C152.3,331.6,153,331.7,153.6,331.7L153.6,331.7z M183.1,335.8c-1.1,0-2.2-0.2-3.1-0.7c-0.9-0.4-1.7-1.1-2.3-2v2.4h-4.3v-24.9h4.3
	v10.2c0.6-0.8,1.3-1.5,2.2-2c1-0.5,2-0.7,3.1-0.7c1.1,0,2.1,0.2,3.1,0.6c1,0.4,1.9,1,2.6,1.8c0.8,0.8,1.4,1.8,1.8,2.8
	c0.5,1.2,0.7,2.4,0.7,3.7c0,1.3-0.2,2.5-0.7,3.7c-0.4,1-1.1,2-1.8,2.8C187.3,335,185.2,335.9,183.1,335.8L183.1,335.8z M184.1,331.4
	c1.1-0.5,2-1.4,2.5-2.5c0.5-1.2,0.5-2.6,0-3.8c-0.5-1.1-1.4-2-2.5-2.5c-0.6-0.3-1.2-0.4-1.8-0.4c-1.3,0-2.5,0.5-3.4,1.4
	c-0.9,0.9-1.3,2.1-1.3,3.4c0,1.3,0.5,2.5,1.3,3.4C180.2,331.7,182.3,332.1,184.1,331.4L184.1,331.4z M191.9,341.8
	c-0.8-0.3-1.5-0.6-2.2-1.1l2.5-3.5c0.3,0.3,0.6,0.6,1,0.7c0.4,0.2,0.8,0.3,1.3,0.3c0.7,0,1.4-0.2,1.9-0.6c0.6-0.6,1.1-1.3,1.4-2.1
	l0.3-0.7l-6.8-16.3h4.6l4.4,11l4.2-11h4.5l-7.3,18c-0.4,1-0.8,1.9-1.4,2.8c-0.4,0.7-0.9,1.3-1.5,1.8c-0.6,0.5-1.2,0.8-1.9,1
	c-0.8,0.2-1.6,0.3-2.4,0.3C193.6,342.3,192.7,342.1,191.9,341.8L191.9,341.8z M218.6,312.4h7.4c1.7,0,3.4,0.3,4.9,0.9
	c1.4,0.6,2.7,1.4,3.8,2.4c1,1,1.9,2.3,2.4,3.7c0.6,1.4,0.9,3,0.9,4.6c0,1.6-0.3,3.1-0.9,4.6c-0.6,1.4-1.4,2.6-2.5,3.6
	c-1.1,1-2.4,1.9-3.8,2.4c-1.5,0.6-3.1,0.9-4.7,0.9h-7.5L218.6,312.4z M223.1,316.6v14.8h2.8c1.1,0,2.2-0.2,3.2-0.6
	c0.9-0.3,1.7-0.9,2.4-1.6c0.7-0.7,1.2-1.5,1.5-2.3c0.4-0.9,0.6-1.9,0.5-2.9c0-1-0.2-2-0.5-2.9c-0.3-0.9-0.8-1.7-1.5-2.3
	c-0.7-0.7-1.5-1.2-2.4-1.6c-1.1-0.4-2.2-0.6-3.3-0.5L223.1,316.6z M240.9,311.6c0.5-0.5,1.2-0.8,2-0.8c0.8,0,1.5,0.3,2,0.8
	c0.5,0.5,0.8,1.3,0.8,2c0.1,1.6-1.2,3-2.8,3c-1.6,0-2.9-1.4-2.8-3C240.1,312.9,240.4,312.2,240.9,311.6L240.9,311.6z M240.7,318.5
	h4.5v17.1h-4.5V318.5z M255.5,335.9c-1.7,0.1-3.5-0.3-5-1.1c-1.3-0.7-2.3-1.8-3-3.2l4.2-1.6c0.7,1.5,2.3,2.4,3.9,2.3
	c0.7,0,1.4-0.2,2-0.6c0.4-0.3,0.7-0.8,0.7-1.3c0-0.3-0.1-0.6-0.3-0.8c-0.3-0.2-0.5-0.4-0.9-0.5c-0.4-0.2-0.8-0.3-1.3-0.4
	c-0.5-0.1-1-0.2-1.5-0.3c-0.7-0.2-1.4-0.3-2.2-0.5c-0.7-0.2-1.3-0.5-1.9-0.9c-0.6-0.4-1-0.9-1.4-1.4c-0.4-0.7-0.6-1.4-0.5-2.2
	c0-0.7,0.2-1.4,0.5-2.1c0.3-0.7,0.8-1.2,1.4-1.7c0.7-0.5,1.4-0.9,2.2-1.2c3.7-1.4,7.9-0.1,10.2,3.2l-4,1.5c-0.3-0.5-0.8-1-1.3-1.3
	c-0.6-0.3-1.3-0.5-2-0.5c-0.7-0.1-1.3,0.1-1.9,0.4c-0.4,0.3-0.6,0.7-0.6,1.2c0,0.5,0.3,0.9,1,1.1c0.7,0.2,1.6,0.5,2.9,0.7
	c0.7,0.2,1.4,0.3,2.2,0.5c0.7,0.2,1.4,0.5,2,0.9c0.6,0.4,1.1,0.9,1.5,1.5c0.4,0.7,0.6,1.5,0.6,2.3c0,1.5-0.7,2.9-1.8,3.8
	c-0.7,0.6-1.4,1-2.3,1.3C257.6,335.7,256.5,335.9,255.5,335.9L255.5,335.9z M273.4,335.9c-1.2,0-2.4-0.2-3.6-0.7
	c-1.1-0.5-2-1.1-2.8-1.9c-1.7-1.7-2.6-3.9-2.6-6.3c0-1.2,0.2-2.4,0.7-3.5c0.4-1.1,1.1-2,1.9-2.8c1.7-1.7,4-2.6,6.4-2.6
	c0.9,0,1.9,0.1,2.8,0.4c2.5,0.7,4.5,2.6,5.5,5l-4,1.6c-0.3-0.9-0.9-1.6-1.6-2.2c-0.7-0.5-1.6-0.8-2.6-0.8c-0.6,0-1.2,0.1-1.8,0.4
	c-1.1,0.5-2,1.4-2.5,2.6c-0.2,0.6-0.4,1.2-0.4,1.9c0,1.2,0.5,2.5,1.4,3.3c0.4,0.4,0.9,0.8,1.5,1c0.6,0.2,1.2,0.4,1.8,0.4
	c0.9,0,1.8-0.3,2.6-0.8c0.7-0.6,1.3-1.3,1.6-2.2l4.1,1.7c-0.7,1.5-1.8,2.9-3.2,3.9C277,335.4,275.2,335.9,273.4,335.9L273.4,335.9z
	 M292.6,335.9c-1.2,0-2.4-0.2-3.6-0.7c-4.5-1.9-6.6-7.1-4.7-11.6c0.4-1.1,1.1-2,1.9-2.8c3.6-3.5,9.3-3.5,12.8,0
	c0.8,0.8,1.5,1.8,1.9,2.8c0.9,2.2,0.9,4.7,0,6.9c-0.5,1-1.1,2-1.9,2.8c-0.8,0.8-1.8,1.5-2.9,1.9
	C295.1,335.6,293.8,335.9,292.6,335.9L292.6,335.9z M292.6,331.7c0.6,0,1.2-0.1,1.8-0.4c0.6-0.2,1.1-0.6,1.5-1
	c0.9-0.9,1.4-2.1,1.4-3.4c0-0.6-0.1-1.3-0.4-1.9c-0.2-0.6-0.6-1.1-1-1.5c-0.4-0.4-0.9-0.8-1.5-1c-1.2-0.5-2.5-0.5-3.6,0
	c-1.1,0.5-2,1.4-2.5,2.5c-0.2,0.6-0.4,1.2-0.4,1.9c0,1.2,0.5,2.5,1.3,3.3c0.4,0.4,0.9,0.8,1.5,1C291.4,331.6,292,331.7,292.6,331.7
	L292.6,331.7z M301.7,318.5h4.6l4.2,11.5l4.2-11.5h4.5l-6.7,17.1h-4.3L301.7,318.5z M328.3,335.9c-1.3,0-2.5-0.2-3.7-0.7
	c-1.1-0.4-2.1-1.1-2.9-1.9c-0.8-0.8-1.4-1.8-1.8-2.8c-0.4-1.1-0.6-2.3-0.6-3.5c0-1.2,0.2-2.4,0.7-3.5c0.9-2.1,2.6-3.8,4.7-4.8
	c2.3-0.9,4.8-0.9,7,0c2.1,0.8,3.8,2.5,4.6,4.6c0.4,1.1,0.7,2.3,0.6,3.5v1.6h-13.5c0.3,1.1,0.9,2,1.7,2.6c0.9,0.7,2.1,1,3.2,1
	c0.9,0,1.8-0.2,2.6-0.6c0.7-0.4,1.2-1,1.7-1.7l3.6,2.1c-0.8,1.2-1.9,2.2-3.2,2.9C331.6,335.6,329.9,335.9,328.3,335.9L328.3,335.9z
	 M328.2,321.8c-1,0-2,0.3-2.9,0.9c-0.8,0.6-1.4,1.4-1.7,2.4h9.1c-0.2-1-0.8-1.8-1.6-2.4C330.2,322.1,329.2,321.8,328.2,321.8
	L328.2,321.8z M340,318.5h4.3v2.6c0.3-0.9,1-1.7,1.8-2.2c0.9-0.5,1.8-0.7,2.9-0.7c1,0,2,0.2,2.9,0.7l-1.6,4.3
	c-0.3-0.2-0.6-0.3-0.9-0.4c-0.4-0.1-0.9-0.2-1.3-0.2c-1,0-1.9,0.3-2.7,0.9c-0.7,0.6-1,1.6-1,3.1v9H340V318.5z M360.5,334.9
	c-2.8-1.2-5.1-3.5-6.2-6.3c-1.2-3-1.2-6.3,0-9.2c1.2-2.8,3.4-5.1,6.2-6.3c3-1.2,6.3-1.2,9.2,0c1.4,0.6,2.7,1.5,3.8,2.6
	c1.1,1.1,1.9,2.4,2.5,3.8c0.6,1.5,0.9,3,0.9,4.6c0,1.6-0.3,3.2-0.9,4.6c-0.6,1.4-1.5,2.7-2.6,3.8c-1.1,1.1-2.3,2-3.8,2.6
	c-1.5,0.6-3,0.9-4.6,0.9C363.5,335.8,361.9,335.5,360.5,334.9L360.5,334.9z M365.1,331.4c2,0,3.9-0.8,5.2-2.2
	c0.7-0.7,1.2-1.5,1.5-2.4c0.7-1.8,0.7-3.9,0-5.8c-0.7-1.8-2.1-3.2-3.9-4c-0.9-0.4-1.9-0.6-2.9-0.6c-1,0-2,0.2-2.9,0.6
	c-1.8,0.8-3.1,2.2-3.8,4c-0.4,0.9-0.6,1.9-0.6,2.9c0,1.9,0.7,3.8,2.1,5.2C361.3,330.7,363.1,331.5,365.1,331.4L365.1,331.4z
	 M379.5,318.5h4.3v2.6c0.4-0.9,1-1.7,1.8-2.2c0.9-0.5,1.9-0.7,2.9-0.7c0.5,0,1.1,0.1,1.6,0.2c0.4,0.1,0.9,0.3,1.3,0.5l-1.6,4.3
	c-0.3-0.2-0.6-0.3-0.9-0.4c-0.4-0.1-0.9-0.2-1.3-0.2c-1,0-1.9,0.3-2.7,0.9c-0.7,0.6-1,1.6-1,3.1v9h-4.3V318.5z M400.2,335.7
	c-1,0-2.1-0.2-3.1-0.6c-1-0.4-1.9-1-2.6-1.7c-0.8-0.8-1.4-1.8-1.8-2.8c-0.5-1.2-0.7-2.4-0.7-3.6c0-1.3,0.2-2.5,0.7-3.7
	c0.4-1,1-2,1.8-2.8c0.7-0.8,1.6-1.4,2.6-1.8c1-0.4,2.1-0.6,3.1-0.6c1.1,0,2.1,0.2,3.1,0.7c0.9,0.4,1.7,1.1,2.2,1.9v-2.3h4.4v15.8
	c0,1.2-0.2,2.3-0.6,3.4c-0.4,1-1,1.9-1.8,2.7c-0.8,0.8-1.8,1.4-2.8,1.8c-1.1,0.4-2.4,0.7-3.6,0.6c-1.7,0.1-3.4-0.2-4.9-0.8
	c-1.3-0.6-2.5-1.4-3.4-2.6l3.6-2.8c0.5,0.7,1.2,1.3,1.9,1.7c0.8,0.4,1.8,0.6,2.7,0.6c0.7,0,1.3-0.1,1.9-0.3c0.6-0.2,1.1-0.5,1.5-0.9
	c0.4-0.4,0.8-0.9,1-1.4c0.2-0.6,0.4-1.2,0.3-1.8v-1.3c-0.6,0.8-1.4,1.5-2.3,2C402.3,335.5,401.2,335.8,400.2,335.7L400.2,335.7z
	 M401,331.7c1.3,0,2.5-0.5,3.4-1.4c0.4-0.4,0.8-0.9,1-1.5c0.2-0.6,0.4-1.2,0.4-1.9c0-1.3-0.5-2.5-1.3-3.4c-0.4-0.4-0.9-0.8-1.5-1
	c-0.6-0.3-1.2-0.4-1.9-0.4c-0.6,0-1.3,0.1-1.8,0.4c-0.6,0.2-1.1,0.6-1.5,1c-0.4,0.4-0.8,1-1,1.5c-0.3,0.6-0.4,1.3-0.4,1.9
	c0,1.3,0.5,2.5,1.4,3.4c0.4,0.4,0.9,0.8,1.5,1C399.7,331.6,400.4,331.7,401,331.7L401,331.7z M-30.6,233.6c1,0,1.8,0.8,1.8,1.8v24.2
	c0,1-0.8,1.8-1.8,1.8h-7.1c-1,0-1.8-0.8-1.8-1.8v-7.4l-75.8,72.6h15.6c1,0,1.8,0.8,1.8,1.8v7.1c0,1-0.8,1.8-1.8,1.8h-29.7
	c-1,0-1.8-0.8-1.8-1.8v-8.9l84-80.5h-8.5c-1,0-1.8-0.8-1.8-1.8v-7.1c0-1,0.8-1.8,1.8-1.8H-30.6z M-120.6,259.8c0,1-0.8,1.8-1.8,1.8
	h-7.1c-1,0-1.8-0.8-1.8-1.8v-24.5c0-1,0.8-1.8,1.8-1.8h56.7c1,0,1.8,0.8,1.8,1.8v6.9c0,1-0.8,1.8-1.8,1.8h-47.8V259.8z M-39.5,308.4
	c0-1,0.8-1.8,1.8-1.8h7.1c1,0,1.8,0.8,1.8,1.8v25.2c0,1-0.8,1.8-1.8,1.8h-52.2c-1,0-1.8-0.8-1.8-1.8v-7.1c0-1,0.8-1.8,1.8-1.8h43.2
	V308.4z M-39.5,308.4"/>
</svg>
